<svg xmlns="http://www.w3.org/2000/svg" xmlns:xlink="http://www.w3.org/1999/xlink" width="500" zoomAndPan="magnify" viewBox="0 0 375 374.999991" height="500" preserveAspectRatio="xMidYMid meet" version="1.0"><defs><g/><clipPath id="id1"><path d="M 81 67.207031 L 294 67.207031 L 294 174.011719 L 81 174.011719 Z M 81 67.207031 " clip-rule="nonzero"/></clipPath></defs><rect x="-37.5" width="450" fill="#ffffff" y="-37.499999" height="449.999989" fill-opacity="1"/><rect x="-37.5" width="450" fill="#ffffff" y="-37.499999" height="449.999989" fill-opacity="1"/><rect x="-37.5" width="450" fill="#ffffff" y="-37.499999" height="449.999989" fill-opacity="1"/><rect x="-37.5" width="450" fill="#ffffff" y="-37.499999" height="449.999989" fill-opacity="1"/><g clip-path="url(#id1)"><path fill="#735e59" d="M 120.898438 164.175781 C 120.832031 164.601562 120.464844 164.902344 120.054688 164.902344 C 120.007812 164.902344 119.964844 164.898438 119.917969 164.890625 L 81.742188 158.828125 C 81.273438 158.757812 80.953125 158.316406 81.027344 157.847656 C 81.101562 157.378906 81.542969 157.054688 82.011719 157.132812 L 120.179688 163.195312 C 120.652344 163.269531 120.976562 163.707031 120.898438 164.175781 Z M 122.988281 152.226562 L 86.363281 139.878906 C 85.910156 139.726562 85.421875 139.96875 85.273438 140.421875 C 85.121094 140.871094 85.363281 141.359375 85.8125 141.507812 L 122.441406 153.855469 C 122.527344 153.886719 122.621094 153.902344 122.714844 153.902344 C 123.074219 153.902344 123.410156 153.679688 123.53125 153.316406 C 123.683594 152.871094 123.4375 152.382812 122.988281 152.226562 Z M 92.691406 125.105469 L 126.757812 143.382812 C 126.882812 143.449219 127.023438 143.484375 127.160156 143.484375 C 127.46875 143.484375 127.765625 143.316406 127.917969 143.027344 C 128.144531 142.609375 127.984375 142.089844 127.566406 141.863281 L 93.5 123.585938 C 93.078125 123.359375 92.558594 123.515625 92.332031 123.9375 C 92.117188 124.359375 92.273438 124.878906 92.691406 125.105469 Z M 102.273438 110.152344 L 132.863281 133.804688 C 133.023438 133.925781 133.207031 133.984375 133.390625 133.984375 C 133.648438 133.984375 133.902344 133.871094 134.074219 133.648438 C 134.363281 133.273438 134.292969 132.734375 133.917969 132.441406 L 103.324219 108.792969 C 102.949219 108.503906 102.410156 108.570312 102.117188 108.945312 C 101.828125 109.324219 101.894531 109.863281 102.273438 110.152344 Z M 140.414062 125.316406 C 140.585938 125.5 140.816406 125.59375 141.042969 125.59375 C 141.253906 125.59375 141.464844 125.515625 141.632812 125.363281 C 141.980469 125.039062 142 124.496094 141.679688 124.148438 L 115.378906 95.789062 C 115.054688 95.441406 114.511719 95.417969 114.164062 95.742188 C 113.8125 96.066406 113.792969 96.609375 114.117188 96.960938 Z M 149.222656 118.140625 C 149.390625 118.390625 149.660156 118.527344 149.941406 118.527344 C 150.105469 118.527344 150.269531 118.480469 150.414062 118.386719 C 150.808594 118.128906 150.921875 117.59375 150.660156 117.195312 L 129.378906 84.898438 C 129.113281 84.5 128.582031 84.390625 128.1875 84.648438 C 127.789062 84.910156 127.679688 85.445312 127.9375 85.839844 Z M 159.109375 112.585938 C 159.25 112.910156 159.5625 113.101562 159.894531 113.101562 C 160.011719 113.101562 160.128906 113.074219 160.242188 113.027344 C 160.679688 112.835938 160.875 112.328125 160.683594 111.894531 L 145.035156 76.507812 C 144.84375 76.074219 144.335938 75.875 143.898438 76.070312 C 143.464844 76.261719 143.269531 76.773438 143.460938 77.207031 Z M 169.757812 108.792969 C 169.855469 109.183594 170.210938 109.4375 170.59375 109.4375 C 170.664062 109.4375 170.734375 109.429688 170.804688 109.414062 C 171.265625 109.292969 171.546875 108.828125 171.425781 108.367188 L 161.886719 70.867188 C 161.765625 70.410156 161.304688 70.128906 160.839844 70.246094 C 160.378906 70.367188 160.097656 70.835938 160.21875 71.292969 Z M 181.746094 107.539062 C 181.769531 107.539062 181.792969 107.539062 181.816406 107.535156 C 182.289062 107.496094 182.644531 107.078125 182.605469 106.605469 L 179.417969 68.039062 C 179.378906 67.566406 178.960938 67.214844 178.492188 67.253906 C 178.019531 67.292969 177.667969 67.707031 177.703125 68.179688 L 180.890625 106.746094 C 180.925781 107.195312 181.304688 107.539062 181.746094 107.539062 Z M 193.035156 107.535156 C 193.058594 107.535156 193.082031 107.539062 193.105469 107.539062 C 193.546875 107.539062 193.925781 107.195312 193.960938 106.746094 L 197.148438 68.179688 C 197.183594 67.707031 196.832031 67.292969 196.359375 67.253906 C 195.886719 67.214844 195.472656 67.566406 195.433594 68.039062 L 192.246094 106.605469 C 192.207031 107.078125 192.5625 107.496094 193.035156 107.535156 Z M 204.046875 109.417969 C 204.117188 109.433594 204.1875 109.441406 204.257812 109.441406 C 204.640625 109.441406 204.996094 109.183594 205.09375 108.796875 L 214.632812 71.292969 C 214.75 70.835938 214.472656 70.367188 214.011719 70.246094 C 213.546875 70.132812 213.085938 70.410156 212.964844 70.867188 L 203.425781 108.371094 C 203.304688 108.832031 203.582031 109.296875 204.046875 109.417969 Z M 214.605469 113.023438 C 214.722656 113.074219 214.835938 113.097656 214.957031 113.097656 C 215.289062 113.097656 215.601562 112.90625 215.742188 112.582031 L 231.390625 77.199219 C 231.582031 76.765625 231.386719 76.253906 230.953125 76.0625 C 230.519531 75.871094 230.007812 76.066406 229.816406 76.5 L 214.167969 111.882812 C 213.976562 112.324219 214.171875 112.832031 214.605469 113.023438 Z M 224.4375 118.386719 C 224.582031 118.484375 224.746094 118.527344 224.910156 118.527344 C 225.191406 118.527344 225.460938 118.390625 225.628906 118.140625 L 246.910156 85.839844 C 247.171875 85.445312 247.066406 84.910156 246.664062 84.648438 C 246.269531 84.390625 245.734375 84.496094 245.472656 84.898438 L 224.191406 117.195312 C 223.929688 117.59375 224.035156 118.125 224.4375 118.386719 Z M 233.214844 125.363281 C 233.382812 125.515625 233.589844 125.59375 233.804688 125.59375 C 234.03125 125.59375 234.261719 125.5 234.433594 125.316406 L 260.730469 96.960938 C 261.054688 96.609375 261.03125 96.066406 260.683594 95.742188 C 260.335938 95.417969 259.792969 95.441406 259.46875 95.789062 L 233.167969 124.148438 C 232.851562 124.496094 232.871094 125.039062 233.214844 125.363281 Z M 240.78125 133.648438 C 240.953125 133.871094 241.207031 133.984375 241.464844 133.984375 C 241.644531 133.984375 241.832031 133.925781 241.992188 133.804688 L 272.582031 110.152344 C 272.957031 109.863281 273.027344 109.324219 272.734375 108.945312 C 272.445312 108.570312 271.90625 108.5 271.527344 108.792969 L 240.9375 132.445312 C 240.5625 132.734375 240.488281 133.273438 240.78125 133.648438 Z M 246.929688 143.027344 C 247.085938 143.316406 247.378906 143.484375 247.6875 143.484375 C 247.820312 143.484375 247.960938 143.449219 248.089844 143.382812 L 282.15625 125.105469 C 282.574219 124.878906 282.730469 124.359375 282.507812 123.9375 C 282.285156 123.523438 281.765625 123.363281 281.34375 123.585938 L 247.277344 141.863281 C 246.859375 142.089844 246.703125 142.609375 246.929688 143.027344 Z M 289.578125 140.421875 C 289.425781 139.96875 288.941406 139.726562 288.488281 139.878906 L 251.863281 152.226562 C 251.410156 152.382812 251.167969 152.867188 251.324219 153.316406 C 251.441406 153.675781 251.777344 153.902344 252.140625 153.902344 C 252.230469 153.902344 252.320312 153.890625 252.414062 153.855469 L 289.042969 141.507812 C 289.488281 141.359375 289.730469 140.871094 289.578125 140.421875 Z M 293.820312 157.847656 C 293.742188 157.378906 293.304688 157.054688 292.835938 157.132812 L 254.664062 163.195312 C 254.199219 163.265625 253.875 163.707031 253.953125 164.175781 C 254.019531 164.601562 254.386719 164.902344 254.796875 164.902344 C 254.84375 164.902344 254.886719 164.898438 254.933594 164.890625 L 293.105469 158.828125 C 293.570312 158.757812 293.894531 158.316406 293.820312 157.847656 Z M 187.996094 110.058594 C 153.25 110.058594 124.984375 138.363281 124.984375 173.15625 C 124.984375 173.632812 125.371094 174.015625 125.84375 174.015625 C 126.316406 174.015625 126.703125 173.628906 126.703125 173.15625 C 126.703125 139.316406 154.195312 111.78125 187.992188 111.78125 C 221.792969 111.78125 249.285156 139.316406 249.285156 173.15625 C 249.285156 173.632812 249.671875 174.015625 250.144531 174.015625 C 250.617188 174.015625 251.003906 173.628906 251.003906 173.15625 C 251.011719 138.367188 222.742188 110.058594 187.996094 110.058594 Z M 187.996094 120.441406 C 158.96875 120.441406 135.351562 144.089844 135.351562 173.15625 C 135.351562 173.632812 135.738281 174.015625 136.210938 174.015625 C 136.683594 174.015625 137.070312 173.628906 137.070312 173.15625 C 137.070312 145.035156 159.917969 122.160156 187.996094 122.160156 C 188.472656 122.160156 188.855469 121.773438 188.855469 121.300781 C 188.855469 120.828125 188.472656 120.441406 187.996094 120.441406 Z M 187.996094 130.824219 C 164.683594 130.824219 145.71875 149.816406 145.71875 173.15625 C 145.71875 173.632812 146.105469 174.015625 146.578125 174.015625 C 147.050781 174.015625 147.4375 173.628906 147.4375 173.15625 C 147.4375 150.761719 165.628906 132.542969 187.992188 132.542969 C 188.46875 132.542969 188.851562 132.15625 188.851562 131.683594 C 188.851562 131.210938 188.472656 130.824219 187.996094 130.824219 Z M 187.996094 141.203125 C 170.402344 141.203125 156.089844 155.539062 156.089844 173.15625 C 156.089844 173.632812 156.476562 174.015625 156.949219 174.015625 C 157.417969 174.015625 157.808594 173.628906 157.808594 173.15625 C 157.808594 156.484375 171.351562 142.925781 187.996094 142.925781 C 188.472656 142.925781 188.855469 142.539062 188.855469 142.066406 C 188.855469 141.59375 188.472656 141.203125 187.996094 141.203125 Z M 187.996094 151.585938 C 176.117188 151.585938 166.453125 161.261719 166.453125 173.15625 C 166.453125 173.632812 166.839844 174.015625 167.3125 174.015625 C 167.785156 174.015625 168.171875 173.628906 168.171875 173.15625 C 168.171875 162.210938 177.066406 153.308594 187.992188 153.308594 C 188.46875 153.308594 188.851562 152.921875 188.851562 152.449219 C 188.851562 151.976562 188.472656 151.585938 187.996094 151.585938 Z M 187.996094 151.585938 " fill-opacity="1" fill-rule="nonzero"/></g><path stroke-linecap="round" transform="matrix(5.021426, 0, 0, 5.026042, 80.594538, 174.111989)" fill="none" stroke-linejoin="miter" d="M 0.500043 0.000257038 L 42.040784 0.000257038 " stroke="#735e59" stroke-width="1" stroke-opacity="1" stroke-miterlimit="4"/><g fill="#735e59" fill-opacity="1"><g transform="translate(111.911453, 269.077732)"><g><path d="M 35.585938 0.894531 C 47.671875 0.894531 58.078125 -7.050781 58.078125 -19.359375 C 58.078125 -32.003906 47.335938 -38.832031 35.699219 -42.972656 C 25.292969 -46.664062 13.875 -53.605469 13.875 -64.457031 C 13.875 -75.3125 26.859375 -78.558594 31.78125 -78.558594 C 48.792969 -78.558594 54.273438 -55.171875 54.273438 -55.171875 L 55.28125 -55.171875 L 57.96875 -65.019531 C 53.605469 -72.738281 47 -79.566406 31.78125 -79.566406 C 19.582031 -79.566406 9.289062 -71.621094 9.289062 -59.3125 C 9.289062 -46.664062 20.03125 -39.839844 31.667969 -35.699219 C 41.964844 -32.003906 53.378906 -24.957031 53.378906 -14.101562 C 53.378906 -3.246094 40.511719 0 35.585938 0 C 18.578125 0 6.9375 -26.859375 6.9375 -26.859375 L 6.042969 -26.859375 L 3.355469 -16.898438 C 7.722656 -9.175781 20.367188 0.894531 35.585938 0.894531 Z M 35.585938 0.894531 "/></g></g></g><g fill="#735e59" fill-opacity="1"><g transform="translate(178.605738, 269.077732)"><g><path d="M 70.613281 -25.625 C 70.5 -17.234375 68.824219 -6.15625 53.605469 -2.910156 C 37.488281 0 18.578125 -9.175781 12.644531 -31.109375 C 8.058594 -48.566406 13.875 -71.621094 33.125 -76.769531 C 49.238281 -81.019531 62.78125 -69.046875 69.71875 -55.171875 L 70.726562 -55.171875 L 73.410156 -65.019531 C 63.789062 -76.320312 48.121094 -81.804688 32.902344 -77.664062 C 11.636719 -71.957031 -0.894531 -50.246094 4.8125 -28.984375 C 15.21875 9.960938 70.5 9.625 78.558594 -26.632812 C 79.34375 -30.214844 78.894531 -36.371094 81.132812 -36.371094 L 81.132812 -37.378906 L 51.476562 -37.378906 L 51.476562 -36.371094 L 58.640625 -36.371094 C 64.347656 -36.371094 70.5 -35.363281 70.613281 -25.625 Z M 70.613281 -25.625 "/></g></g></g></svg>